# xmcd CD database file
#
# Track frame offsets:
#	150
#	12970
#	32074
#	56460
#	73177
#	91274
#	108861
#	124744
#	143445
#	164801
#	187609
#	211845
#	228617
#	243628
#	267939
#	288141
#	315061
#	337225
#
# Disc length: 4766 seconds
#
# Revision: 0
# Processed by: cddbd v1.4PL0 Copyright (c) Steve Scherf et al.
# Submitted via: CDex 1.50beta8
#
DISCID=f7129c12
DTITLE=NICK THE NIGHTFLY  - On top of the world Vol.8 cd 2
DYEAR=2003
DGENRE=Lounge
TTITLE0=ANDREA GUERRA with NATIONAL SYMPHONY ORCHESTRA- La Finestra Di Fronte
TTITLE1=NOA - Eye In The Sky
TTITLE2=ANNE DUDLEY - Variations On A Groove
TTITLE3=ADRIANA CALCANHOTTO - Justo Agora 
TTITLE4=MYSTIC DIVERSIONS - O Que Sera
TTITLE5=STEVE WINWOOD - Why Can't We Live Together
TTITLE6=CHRIS BOTTI - Indian Summer
TTITLE7=PETER CINCOTTI - Sway
TTITLE8=JAKATTA - Feeling Blue
TTITLE9=PETER MALICK GROUP f. NORAH JONES - New York City
TTITLE10=BUGGE WESSELTOFT - Yellow Is The Colour (Edit)
TTITLE11=MARCIO FARACO - Efemera
TTITLE12=GUADALUPE PINEDA - Historia De Un Amor
TTITLE13=CHRISTOPHE GOZE - Little Boy
TTITLE14=PERRY BLAKE - This Life
TTITLE15=KARIN ALLISON - Moanin'
TTITLE16=LUDOVICO EINAUDI - Le Onde
TTITLE17=ROB DOUGAN - Instrumental
EXTD=YEAR: 2003
EXTT0=
EXTT1=
EXTT2=
EXTT3=
EXTT4=
EXTT5=
EXTT6=
EXTT7=
EXTT8=
EXTT9=
EXTT10=
EXTT11=
EXTT12=
EXTT13=
EXTT14=
EXTT15=
EXTT16=
EXTT17=
PLAYORDER=
